<svg width="24" height="24" viewBox="0 0 24 24" fill="none" xmlns="http://www.w3.org/2000/svg">
<path d="M16.801 2H7.1983C6.23757 2 5.45874 2.77883 5.45874 3.73956V20.2604C5.45874 21.2212 6.23757 22 7.1983 22H16.801C17.7617 22 18.5406 21.2212 18.5406 20.2604V3.73956C18.5406 2.77883 17.7617 2 16.801 2Z" stroke="#ED7C7C" stroke-width="1.5" stroke-linecap="round" stroke-linejoin="round"/>
<path d="M14.6845 4.93511H9.31563C9.09021 4.93535 8.87217 4.85477 8.70108 4.70799C8.53 4.56121 8.41721 4.35795 8.38318 4.13511L8.06763 2H15.9325L15.617 4.13333C15.5833 4.3565 15.4707 4.56017 15.2996 4.70732C15.1285 4.85446 14.9102 4.93529 14.6845 4.93511V4.93511Z" stroke="#ED7C7C" stroke-width="1.5" stroke-linecap="round" stroke-linejoin="round"/>
</svg>
