<svg width="305" height="70" viewBox="0 0 305 70" fill="none" xmlns="http://www.w3.org/2000/svg">
<path d="M40.7592 21.7316C40.7592 14.4157 36.2412 10.4539 27.8647 10.4539H8.66956V33.0093H27.8647C36.2412 33.0093 40.7592 29.0475 40.7592 21.7316ZM31.4302 39.7662L46.8645 65.7488V67.037H37.6332L22.4676 41.1517H8.62072V67.037H0V41.1517H8.27882V33.0093H0V2.31154H29.2811C40.9545 2.31154 49.6973 9.99206 49.6973 21.4399C49.6973 33.0093 41.8825 38.9399 31.4302 39.7662Z" fill="#2D2D2D"/>
<path d="M85.5914 11.9365H84.468L73.2587 40.8843H96.5077L85.5914 11.9365ZM115.166 65.7488V67.037H106.496L99.2429 48.3704H70.5479L63.5878 67.037H54.9183V65.7488L80.3409 2.31154H89.743L115.166 65.7488Z" fill="#2D2D2D"/>
<path d="M170.379 3.79417L137.997 67.037H129.059V65.7488L142.148 41.1517H133.406L113.624 3.79417V2.31154H122.66L142.612 40.4225L161.539 2.31154H170.379V3.79417Z" fill="#2D2D2D"/>
<path d="M222.237 58.9919V67.037H178.01V2.31154H186.656V58.9919H222.237Z" fill="#2D2D2D"/>
<path d="M281.51 35.0906C281.51 19.8268 270.691 8.74353 256.942 8.74353C243.193 8.74353 232.374 19.8268 232.374 35.0906C232.374 50.5246 243.193 61.4378 256.942 61.4378C270.691 61.4378 281.51 50.5246 281.51 35.0906ZM290.473 35.0906C290.473 55.3371 275.038 69.7502 256.967 69.7502C238.699 69.7502 223.461 55.3371 223.461 35.0906C223.461 14.6498 238.699 0.431061 256.967 0.431061C275.038 0.406756 290.473 14.6498 290.473 35.0906Z" fill="#2D2D2D"/>
<path d="M304.458 58.7243H295.423V67.4986H304.458V58.7243Z" fill="#2D2D2D"/>
</svg>
