<svg width="24" height="24" viewBox="0 0 24 24" fill="none" xmlns="http://www.w3.org/2000/svg">
<path d="M14.0001 22H10.0001C9.64646 22 9.30732 21.8595 9.05727 21.6095C8.80722 21.3594 8.66675 21.0203 8.66675 20.6667V18H15.3334V20.6667C15.3334 21.0203 15.1929 21.3594 14.9429 21.6095C14.6928 21.8595 14.3537 22 14.0001 22Z" stroke="#ED7C7C" stroke-width="1.5" stroke-linecap="round" stroke-linejoin="round"/>
<path d="M10.0001 2H14.0001C14.3537 2 14.6928 2.14048 14.9429 2.39052C15.1929 2.64057 15.3334 2.97971 15.3334 3.33333V6H8.66675V3.33333C8.66675 2.97971 8.80722 2.64057 9.05727 2.39052C9.30732 2.14048 9.64646 2 10.0001 2V2Z" stroke="#ED7C7C" stroke-width="1.5" stroke-linecap="round" stroke-linejoin="round"/>
<path d="M15.3333 6H8.66667C7.19391 6 6 7.19391 6 8.66667V15.3333C6 16.8061 7.19391 18 8.66667 18H15.3333C16.8061 18 18 16.8061 18 15.3333V8.66667C18 7.19391 16.8061 6 15.3333 6Z" stroke="#ED7C7C" stroke-width="1.5" stroke-linecap="round" stroke-linejoin="round"/>
</svg>
